<?xml version="1.0" encoding="UTF-8" standalone="no" ?>
<!DOCTYPE svg PUBLIC "-//W3C//DTD SVG 1.1//EN" "http://www.w3.org/Graphics/SVG/1.1/DTD/svg11.dtd">
<svg xmlns="http://www.w3.org/2000/svg" xmlns:xlink="http://www.w3.org/1999/xlink" version="1.1" width="640" height="480" viewBox="0 0 640 480" xml:space="preserve">
<desc>Created with Fabric.js 3.6.6</desc>
<defs>
</defs>
<g transform="matrix(1 0 0 1 230.69 230.74)"  >
<path style="stroke: none; stroke-width: 1; stroke-dasharray: none; stroke-linecap: butt; stroke-dashoffset: 0; stroke-linejoin: miter; stroke-miterlimit: 4; fill: rgb(0,0,0); fill-rule: nonzero; opacity: 1;"  transform=" translate(-506.41, -406.19)" d="M 610.227417 200.657227 C 656.592773 224.466492 690.938599 259.723877 713.738098 306.008453 C 724.528259 327.91333 731.282043 351.172241 734.497803 375.542633 C 739.868713 416.246552 734.942505 455.482178 719.581299 493.474518 C 709.417908 518.611084 695.062744 541.10791 676.729004 561.061646 C 648.985901 591.256165 615.794739 613.16748 576.669434 625.575317 C 547.495728 634.827148 517.58136 638.255249 486.943665 635.511719 C 431.659088 630.561157 384.328247 608.498657 344.741791 569.852051 C 317.27124 543.033569 298.033966 511.082855 286.610535 474.365875 C 279.77478 452.394592 276.264557 429.874207 276.218628 407.006378 C 276.152649 374.167603 282.58313 342.382965 296.287964 312.456879 C 322.7052 254.771683 365.46521 213.987183 424.786041 191.163651 C 468.420288 174.375488 513.205627 171.698059 558.792358 182.047195 C 576.593506 186.088409 593.549255 192.429062 610.227417 200.657227 M 343.592163 260.088501 C 308.282288 299.855438 289.610229 346.449066 287.514954 399.449341 C 286.427673 426.951172 290.801575 453.828827 300.275726 479.805542 C 317.547913 527.163147 347.252563 564.55719 389.876282 591.490784 C 435.700226 620.446655 485.661957 630.319275 539.134766 622.716125 C 582.982788 616.481567 621.748657 598.37561 653.762207 568.143066 C 713.715027 511.525635 736.394897 441.769623 720.467712 360.739471 C 710.175842 308.378967 682.452026 265.967224 640.305298 233.227859 C 608.552673 208.562622 572.642395 193.974487 532.627075 189.01207 C 508.7099 186.046036 485.01886 186.963715 461.6633 191.962784 C 415.355652 201.874588 376.027069 224.434021 343.592163 260.088501 z" stroke-linecap="round" />
</g>
<g transform="matrix(1 0 0 1 232.14 230.9)"  >
<path style="stroke: none; stroke-width: 1; stroke-dasharray: none; stroke-linecap: butt; stroke-dashoffset: 0; stroke-linejoin: miter; stroke-miterlimit: 4; fill: rgb(0,0,0); fill-rule: nonzero; opacity: 1;"  transform=" translate(-507.85, -406.35)" d="M 480.284424 262.995605 C 492.358612 260.939636 503.999207 259.77713 515.906433 260.55191 C 542.94928 262.311462 567.951111 270.125397 590.23114 285.491577 C 621.717102 307.20697 642.446228 336.793549 650.277649 374.317505 C 661.093079 426.138672 648.44043 472.200836 610.787903 509.529907 C 574.069702 545.932617 528.76062 559.632141 478.16983 548.771973 C 423.56073 537.049194 386.166504 503.336609 369.130493 450.127106 C 354.166626 403.38974 361.989197 359.048645 391.119293 318.98111 C 406.488831 297.84079 426.542969 282.496063 450.269806 272.005493 C 459.68689 267.841797 469.681061 265.004639 480.284424 262.995605 M 518.86792 403.201019 C 533.704529 401.264496 548.53241 399.25589 563.38385 397.44104 C 567.18811 396.976227 568.928589 395.539856 568.79187 391.433411 C 568.531494 383.612976 568.609009 375.775024 568.776672 367.94928 C 568.862122 363.960297 567.283203 362.068359 563.369385 360.940552 C 547.939758 356.494507 532.275024 353.706146 516.217773 353.29538 C 513.167908 353.217316 511.6716 352.23175 511.654663 348.915649 C 511.637573 345.562286 513.542603 345.072754 516.128174 345.063416 C 517.793884 345.057404 519.465088 344.949219 521.124268 345.047699 C 525.160767 345.287323 526.882812 343.439331 526.841919 339.417664 C 526.753845 330.756622 526.743652 322.092072 526.896606 313.432404 C 526.97229 309.149536 525.062744 307.371857 520.902039 307.405396 C 512.240479 307.475281 503.577667 307.471161 494.916016 307.409515 C 490.960175 307.381378 489.107727 309.141083 489.162384 313.149078 C 489.253265 319.810974 489.192566 326.475006 489.192261 333.138123 C 489.191772 344.06897 489.186218 344.120178 499.838745 345.025635 C 502.751007 345.273163 504.490021 346.110962 504.391754 349.496735 C 504.296265 352.787109 502.39502 353.203979 499.79776 353.293457 C 483.75174 353.845978 468.063721 356.540466 452.60495 360.882599 C 448.909973 361.920441 447.239044 363.598358 447.260254 367.387482 C 447.336639 381.0466 447.331177 394.706451 447.287994 408.365814 C 447.277924 411.546387 448.227325 412.768982 451.768097 412.270477 C 473.818634 409.166077 495.900085 406.281555 518.86792 403.201019 M 523.954285 442.562042 C 500.246765 445.72049 476.554443 449.002045 452.818665 451.931671 C 448.167328 452.505798 447.063538 454.51358 447.219177 458.74118 C 447.482391 465.890503 447.288391 473.056335 447.300812 480.21524 C 447.312439 486.916229 448.284821 487.910828 454.863708 488.622986 C 476.406219 490.955048 498.019745 491.037964 519.652832 490.979004 C 533.480347 490.941315 547.223511 489.854797 560.963684 488.574493 C 568.030518 487.916016 568.737244 487.052155 568.747131 479.903015 C 568.764099 467.583069 568.589661 455.259735 568.838867 442.944794 C 568.931702 438.360474 567.638733 436.564789 562.860779 437.268036 C 550.209473 439.130249 537.52063 440.73764 523.954285 442.562042 M 477.921783 438.258423 C 480.573883 438.010345 483.238068 437.852753 485.87619 437.500031 C 510.265564 434.239349 534.664429 431.044189 559.030273 427.615479 C 570.027527 426.068024 568.620789 427.953583 568.736206 416.620544 C 568.753174 414.954254 568.591492 413.275421 568.742798 411.623444 C 569.08374 407.899109 567.243408 406.960571 563.920654 407.432953 C 558.652527 408.181915 553.36261 408.776154 548.08844 409.484497 C 518.926575 413.401062 489.744843 417.17868 460.61499 421.320953 C 445.066986 423.531891 447.500305 419.914673 447.307068 436.120026 C 447.239807 441.762207 448.031799 442.340363 453.793457 441.559723 C 461.53894 440.510254 469.284668 439.462494 477.921783 438.258423 z" stroke-linecap="round" />
</g>
<g transform="matrix(1 0 0 1 232.29 151.03)"  >
<path style="stroke: none; stroke-width: 1; stroke-dasharray: none; stroke-linecap: butt; stroke-dashoffset: 0; stroke-linejoin: miter; stroke-miterlimit: 4; fill: rgb(0,0,0); fill-rule: nonzero; opacity: 1;"  transform=" translate(-508.01, -326.47)" d="M 508.791534 332.193085 C 504.328766 332.103271 502.162354 329.84198 502.278931 325.929504 C 502.368744 322.914948 504.470398 321.076263 507.459717 320.791779 C 510.751923 320.478455 512.945129 322.194946 513.595093 325.391418 C 514.315186 328.932892 512.427979 331.043854 508.791534 332.193085 z" stroke-linecap="round" />
</g>
</svg>