<?xml version="1.0" encoding="UTF-8" standalone="no" ?>
<!DOCTYPE svg PUBLIC "-//W3C//DTD SVG 1.1//EN" "http://www.w3.org/Graphics/SVG/1.1/DTD/svg11.dtd">
<svg xmlns="http://www.w3.org/2000/svg" xmlns:xlink="http://www.w3.org/1999/xlink" version="1.1" width="640" height="480" viewBox="0 0 640 480" xml:space="preserve">
<desc>Created with Fabric.js 3.6.6</desc>
<defs>
</defs>
<g transform="matrix(1.09 0 0 1.09 311.08 7.2)" id="Layer_1"  >
<path style="stroke: none; stroke-width: 1; stroke-dasharray: none; stroke-linecap: butt; stroke-dashoffset: 0; stroke-linejoin: miter; stroke-miterlimit: 4; fill: rgb(0,0,0); fill-rule: nonzero; opacity: 1;"  transform=" translate(-508.01, -326.47)" d="M 508.791534 332.193085 C 504.328766 332.103271 502.162354 329.84198 502.278931 325.929504 C 502.368744 322.914948 504.470398 321.076263 507.459717 320.791779 C 510.751923 320.478455 512.945129 322.194946 513.595093 325.391418 C 514.315186 328.932892 512.427979 331.043854 508.791534 332.193085 z" stroke-linecap="round" />
</g>
<g transform="matrix(1.16 0 0 1.16 309.86 52.17)"  >
<g style=""   >
		<g transform="matrix(1.09 0 0 1.09 11.39 -0.86)" id="Layer_1"  >
<path style="stroke: none; stroke-width: 1; stroke-dasharray: none; stroke-linecap: butt; stroke-dashoffset: 0; stroke-linejoin: miter; stroke-miterlimit: 4; fill: rgb(0,0,0); fill-rule: nonzero; opacity: 1;"  transform=" translate(-519.74, -719.87)" d="M 543.331787 726.176758 C 544.265503 735.245972 544.043091 743.909363 544.224731 752.560059 C 544.305115 756.388245 544.032898 759.421814 538.815857 759.426147 C 533.843994 759.430298 533.6297 756.658813 533.653992 752.949524 C 533.743774 739.194641 533.689819 725.438782 533.689819 711.683289 C 533.263977 711.634277 532.838135 711.585205 532.412292 711.536194 C 530.793457 719.831543 529.13269 728.118958 527.56958 736.424805 C 526.401245 742.633545 525.322937 748.859985 524.278748 755.091064 C 523.884766 757.442139 523.135803 759.206299 520.318054 759.307922 C 517.390442 759.413574 516.193054 757.908264 515.674438 755.22998 C 513.049805 741.67511 510.34433 728.135803 507.657471 714.593018 C 507.371216 713.150085 507.021698 711.719666 506.140656 710.327759 C 506.140656 724.716309 506.039825 739.106018 506.199219 753.492798 C 506.250214 758.092773 504.433044 759.794312 499.922363 759.453918 C 496.958099 759.230103 495.791992 757.951477 495.784485 755.090088 C 495.744812 739.953186 495.651886 724.816406 495.570465 709.679626 C 495.528503 701.875366 495.01712 694.083862 495.361206 686.263367 C 495.545959 682.063416 496.92215 680.452148 501.331207 680.560486 C 509.859192 680.769897 509.835724 680.528992 511.335815 688.576172 C 513.588562 700.661194 515.883667 712.738281 518.171509 724.816772 C 518.468506 726.384827 518.544373 728.052185 520.332153 729.779175 C 522.166565 720.957642 524.018433 712.592957 525.618591 704.18042 C 526.828735 697.818665 527.84845 691.413086 528.700623 684.99353 C 529.221375 681.070984 531.60498 679.875793 534.954956 680.322815 C 538.37146 680.778687 542.799683 679.242615 543.51886 685.340576 C 544.095825 690.232788 543.340332 694.961975 543.344482 699.763733 C 543.351929 708.419678 543.34375 717.075562 543.331787 726.176758 z" stroke-linecap="round" />
</g>
		<g transform="matrix(1.09 0 0 1.09 200.64 -0.68)" id="Layer_1"  >
<path style="stroke: none; stroke-width: 1; stroke-dasharray: none; stroke-linecap: butt; stroke-dashoffset: 0; stroke-linejoin: miter; stroke-miterlimit: 4; fill: rgb(0,0,0); fill-rule: nonzero; opacity: 1;"  transform=" translate(-692.79, -720.03)" d="M 686.109863 732.241577 C 686.223022 739.539734 686.178162 746.370605 686.492615 753.184814 C 686.673706 757.109497 685.421448 759.165588 681.278137 759.304321 C 676.988953 759.447876 675.820129 757.018311 675.741821 753.356384 C 675.382996 736.557739 675.016907 719.759216 674.617432 702.961487 C 674.486938 697.476196 674.281189 691.992065 674.04657 686.510132 C 673.870117 682.38678 675.447693 680.530762 679.891785 680.585388 C 688.611206 680.692505 688.434937 680.52948 690.541504 689.218811 C 693.585266 701.774109 696.919128 714.259033 700.459961 726.727051 C 700.3703 714.788635 701.266968 702.882935 700.057922 690.997498 C 699.890381 689.350342 700.0047 687.674683 699.984558 686.012207 C 699.944397 682.702881 701.072632 680.747009 704.870667 680.60675 C 708.809387 680.461365 710.992065 681.837891 710.993652 685.863098 C 710.998169 696.991028 711.260437 708.133484 710.783875 719.242859 C 710.304993 730.406738 711.976624 741.490051 711.42334 752.63208 C 711.283264 755.453491 712.705688 758.866394 707.851807 759.314514 C 701.431274 759.907288 699.967285 759.154724 698.584473 753.910522 C 694.684387 739.119629 690.759399 724.335266 686.832397 709.551453 C 686.670593 708.942383 686.390076 708.364929 685.853943 707.809204 C 685.774597 715.818665 684.776245 723.798828 686.109863 732.241577 z" stroke-linecap="round" />
</g>
		<g transform="matrix(1.09 0 0 1.09 108.91 -0.73)" id="Layer_1"  >
<path style="stroke: none; stroke-width: 1; stroke-dasharray: none; stroke-linecap: butt; stroke-dashoffset: 0; stroke-linejoin: miter; stroke-miterlimit: 4; fill: rgb(0,0,0); fill-rule: nonzero; opacity: 1;"  transform=" translate(-608.91, -719.99)" d="M 603.397888 705.198242 C 603.469604 711.866272 603.963806 712.230469 609.773193 711.99762 C 612.767883 711.877625 613.908081 710.654907 613.869019 707.727173 C 613.777771 700.900391 613.779541 694.070557 613.879944 687.243958 C 613.922241 684.368591 613.235046 680.846069 617.90387 680.712463 C 622.121216 680.591736 625.681335 681.382202 625.808411 686.628784 C 625.92041 691.254761 625.789856 695.887756 625.950623 700.51123 C 626.558289 717.984741 625.517822 735.440735 625.4552 752.906921 C 625.43396 758.818909 624.378174 759.553467 618.766541 759.306641 C 613.440674 759.07251 613.985413 755.531189 614.030945 751.871643 C 614.12793 744.071472 613.892883 736.267517 613.956238 728.466492 C 613.983521 725.111206 612.390198 724.215454 609.322998 724.253479 C 606.227173 724.29187 603.506531 724.426147 603.470215 728.466248 C 603.408875 735.292297 603.385132 742.118652 603.351501 748.944885 C 603.343323 750.609863 603.304077 752.277161 603.372864 753.939514 C 603.544495 758.086426 601.437134 759.399963 597.502197 759.370117 C 593.624268 759.340759 591.499023 758.192139 591.683716 753.940674 C 592.597595 732.906982 590.852966 711.84613 592.28186 690.814087 C 592.359924 689.664917 592.187683 688.495056 592.090759 687.338318 C 591.755798 683.342468 592.447021 680.427185 597.555542 680.618042 C 602.786255 680.813599 603.598999 681.577209 603.490356 687.303101 C 603.379822 693.122192 603.420349 698.944275 603.397888 705.198242 z" stroke-linecap="round" />
</g>
		<g transform="matrix(1.09 0 0 1.09 -247.1 -0.82)" id="Layer_1"  >
<path style="stroke: none; stroke-width: 1; stroke-dasharray: none; stroke-linecap: butt; stroke-dashoffset: 0; stroke-linejoin: miter; stroke-miterlimit: 4; fill: rgb(0,0,0); fill-rule: nonzero; opacity: 1;"  transform=" translate(-283.38, -719.91)" d="M 267.239929 682.048584 C 275.72406 680.00885 283.98056 679.493835 291.871735 682.794067 C 298.833344 685.705627 299.796997 692.496033 299.984009 698.759277 C 300.420624 713.383484 300.463104 728.037781 300.056824 742.662903 C 299.760284 753.33667 292.943024 759.268616 282.256378 759.319885 C 279.095917 759.335083 275.92041 759.122314 272.778351 759.362305 C 268.130463 759.717163 266.682983 757.583313 266.703705 753.181763 C 266.793732 734.053467 266.608887 714.923889 266.695618 695.795532 C 266.715851 691.332092 265.767334 686.83136 267.239929 682.048584 M 278.063293 719.819092 C 278.089264 727.629395 278.055573 735.440552 278.178101 743.24939 C 278.214172 745.546936 277.360016 748.529114 281.387329 748.717712 C 284.882263 748.88147 287.270111 747.698547 287.866974 744.064514 C 288.268829 741.618042 288.589783 739.139465 288.687683 736.664978 C 289.179871 724.222351 286.922272 711.799194 288.434784 699.330078 C 288.642822 697.614929 288.061707 695.652222 287.359467 694.012451 C 286.177551 691.252563 283.575043 691.163452 280.980652 691.276611 C 278.807129 691.371338 278.051392 692.692932 278.166046 694.577393 C 278.659424 702.689148 277.064911 710.786316 278.063293 719.819092 z" stroke-linecap="round" />
</g>
		<g transform="matrix(1.09 0 0 1.09 154.65 -0.53)" id="Layer_1"  >
<path style="stroke: none; stroke-width: 1; stroke-dasharray: none; stroke-linecap: butt; stroke-dashoffset: 0; stroke-linejoin: miter; stroke-miterlimit: 4; fill: rgb(0,0,0); fill-rule: nonzero; opacity: 1;"  transform=" translate(-650.73, -720.17)" d="M 633.659241 740.923889 C 633.606873 727.32196 633.565979 714.198914 633.525635 701.075867 C 633.522583 700.077759 633.491272 699.07843 633.527649 698.081665 C 634.074402 683.104736 645.463928 676.140015 659.116882 682.573059 C 665.174805 685.427429 666.849304 691.238953 667.075134 697.14093 C 667.659851 712.423523 667.969727 727.725586 667.940796 743.019043 C 667.924622 751.59314 663.444214 757.374207 656.527466 759.322937 C 648.440735 761.601135 640.435181 759.188416 636.378418 753.347168 C 633.850281 749.706909 633.575012 745.609802 633.659241 740.923889 M 655.082031 696.671448 C 654.929993 693.694885 654.515686 690.657837 650.665955 690.716309 C 646.913574 690.773315 645.384033 693.059326 644.978455 696.861206 C 644.444763 701.862183 645.180054 706.778442 645.150085 711.734436 C 645.086121 722.327759 645.335388 732.922729 645.398804 743.517334 C 645.422302 747.447449 647.537292 749.460144 651.21228 749.485474 C 655.150269 749.512512 655.98877 746.792908 655.904663 743.352966 C 655.531189 728.084106 656.244629 712.796326 655.082031 696.671448 z" stroke-linecap="round" />
</g>
		<g transform="matrix(1.09 0 0 1.09 -202.57 0.22)" id="Layer_1"  >
<path style="stroke: none; stroke-width: 1; stroke-dasharray: none; stroke-linecap: butt; stroke-dashoffset: 0; stroke-linejoin: miter; stroke-miterlimit: 4; fill: rgb(0,0,0); fill-rule: nonzero; opacity: 1;"  transform=" translate(-324.1, -720.86)" d="M 340.373901 708.822388 C 340.599426 720.429199 340.886078 731.578674 341.032135 742.72998 C 341.177032 753.789124 334.592285 760.96875 324.33075 761.130554 C 314.60907 761.283813 307.685211 753.651428 307.620453 742.747925 C 307.506744 723.596436 308.126251 704.438782 307.172119 685.294861 C 306.994507 681.730713 308.860352 680.63855 312.084351 680.64917 C 315.553589 680.660645 319.075287 680.391174 319.085602 685.385071 C 319.104187 694.380676 318.90979 703.381287 319.148682 712.370667 C 319.42688 722.840942 318.281891 733.299072 319.135284 743.774353 C 319.421265 747.284485 320.156525 750.387024 324.229523 750.389404 C 328.272308 750.391846 329.379822 747.136292 329.497711 743.767822 C 329.60788 740.61853 329.11554 737.452026 329.143616 734.29541 C 329.284332 718.483704 329.598297 702.672974 329.646027 686.861328 C 329.65921 682.484558 331.063293 680.436218 335.734039 680.588623 C 339.242249 680.703003 340.187805 682.134705 340.435852 685.420044 C 341.014618 693.085327 340.425385 700.719238 340.373901 708.822388 z" stroke-linecap="round" />
</g>
		<g transform="matrix(1.09 0 0 1.09 65.25 -0.22)" id="Layer_1"  >
<path style="stroke: none; stroke-width: 1; stroke-dasharray: none; stroke-linecap: butt; stroke-dashoffset: 0; stroke-linejoin: miter; stroke-miterlimit: 4; fill: rgb(0,0,0); fill-rule: nonzero; opacity: 1;"  transform=" translate(-568.98, -720.45)" d="M 579.189087 683.58551 C 582.383301 685.815247 583.714478 688.671387 584.66864 692.014832 C 587.088257 700.49353 586.148865 708.869751 584.105164 717.137573 C 582.56543 723.36676 577.607117 726.770935 570.780396 727.239563 C 563.921997 727.710388 564.270325 727.723694 564.000305 734.7771 C 563.740051 741.573669 564.900757 748.361267 563.757996 755.161133 C 563.091431 759.127197 560.863342 760.324158 557.173767 760.279907 C 553.541321 760.236267 552.12384 758.605164 552.233337 755.044128 C 552.91217 732.963135 552.84491 710.888062 551.935486 688.807739 C 551.601807 680.706177 551.943481 680.638367 559.875916 680.6875 C 566.318298 680.727417 572.913391 679.832581 579.189087 683.58551 M 566.686279 716.575745 C 569.502197 716.65155 572.623657 716.108643 573.216858 713.216431 C 574.480408 707.055542 574.783691 700.709106 572.775208 694.577393 C 571.866089 691.802063 569.400269 691.0979 566.720764 691.279785 C 563.489685 691.499207 564.101929 694.115234 563.845276 696.141479 C 563.65802 697.620361 563.311035 699.130676 563.445496 700.589233 C 563.934387 705.893433 562.883728 711.458618 566.686279 716.575745 z" stroke-linecap="round" />
</g>
		<g transform="matrix(1.09 0 0 1.09 -81.49 -0.17)" id="Layer_1"  >
<path style="stroke: none; stroke-width: 1; stroke-dasharray: none; stroke-linecap: butt; stroke-dashoffset: 0; stroke-linejoin: miter; stroke-miterlimit: 4; fill: rgb(0,0,0); fill-rule: nonzero; opacity: 1;"  transform=" translate(-434.81, -720.5)" d="M 437.196503 691.784607 C 431.094208 691.196594 428.308197 694.17572 429.575317 699.593872 C 430.34024 702.86438 432.047119 705.729797 433.836609 708.56958 C 439.326355 717.281372 446.005066 725.260803 449.7789 735.033875 C 452.893341 743.099304 451.741608 750.310425 446.155762 756.839478 C 440.965057 762.906738 426.121613 760.700439 421.417877 753.187134 C 419.612457 750.303345 418.793579 747.10437 418.336029 743.773499 C 417.580597 738.274292 418.920563 736.829224 424.351257 736.757141 C 428.301605 736.704773 430.301758 738.255737 430.190155 742.328552 C 430.144989 743.977539 430.049805 745.727905 431.141876 747.13678 C 432.568878 748.977844 434.4758 750.000244 436.816742 749.342041 C 439.365051 748.625671 440.586273 746.711121 440.621948 744.102112 C 440.676666 740.101929 438.958649 736.627869 436.947815 733.376282 C 433.096741 727.149048 428.912018 721.128296 425.060822 714.901123 C 421.545105 709.216431 418.438141 703.36084 418.67157 696.310486 C 419.002136 686.325867 425.887756 680.234192 436.561218 680.685303 C 445.805695 681.075989 451.937592 688.334229 451.343384 697.824707 C 451.135498 701.144775 449.47287 702.052856 446.56366 702.155396 C 443.604553 702.259644 440.708679 702.485596 440.098297 698.533386 C 439.729553 696.146057 440.374878 693.377136 437.196503 691.784607 z" stroke-linecap="round" />
</g>
		<g transform="matrix(1.09 0 0 1.09 -40.31 -0.31)" id="Layer_1"  >
<path style="stroke: none; stroke-width: 1; stroke-dasharray: none; stroke-linecap: butt; stroke-dashoffset: 0; stroke-linejoin: miter; stroke-miterlimit: 4; fill: rgb(0,0,0); fill-rule: nonzero; opacity: 1;"  transform=" translate(-472.46, -720.37)" d="M 458.138184 680.718811 C 463.720917 679.913879 465.547333 682.542908 466.367462 687.308411 C 467.966187 696.597778 470.114349 705.79248 472.86087 714.97583 C 474.767822 705.370728 476.683136 695.767212 478.578339 686.15979 C 479.568634 681.139404 481.389343 679.88031 486.575256 680.742615 C 491.821045 681.61499 489.834534 685.285034 489.202576 688.114685 C 485.869659 703.038025 481.938538 717.845154 479.160431 732.867371 C 477.850403 739.951294 478.566833 747.426086 478.539642 754.724365 C 478.525879 758.407532 477.187469 760.271057 473.267334 760.254028 C 469.586761 760.238037 467.477234 758.875061 467.67038 755.015991 C 468.739777 733.651367 461.950806 713.673401 456.865112 693.392578 C 456.177429 690.650085 455.507751 687.899475 454.957184 685.127319 C 454.514038 682.895874 455.062836 681.129333 458.138184 680.718811 z" stroke-linecap="round" />
</g>
		<g transform="matrix(1.09 0 0 1.09 246.5 -0.29)" id="Layer_1"  >
<path style="stroke: none; stroke-width: 1; stroke-dasharray: none; stroke-linecap: butt; stroke-dashoffset: 0; stroke-linejoin: miter; stroke-miterlimit: 4; fill: rgb(0,0,0); fill-rule: nonzero; opacity: 1;"  transform=" translate(-734.71, -720.39)" d="M 751.333496 681.626221 C 752.804016 683.860779 752.12262 685.781006 751.665344 687.72229 C 748.543884 700.97644 745.426147 714.231506 742.33783 727.493347 C 740.271362 736.367004 741.47699 745.389099 741.262024 754.34259 C 741.170227 758.166748 739.98114 760.246582 735.787109 760.281799 C 731.788269 760.315247 729.576477 758.548035 729.892578 754.695618 C 731.767151 731.849609 722.85553 710.939331 718.35498 689.240845 C 718.220093 688.590576 717.943054 687.964417 717.856018 687.310547 C 717.508606 684.698669 715.641968 681.527344 720.305298 680.734497 C 725.266052 679.891052 727.344299 681.134705 728.297302 685.695374 C 730.296997 695.26593 732.280457 704.839905 734.553589 715.773804 C 736.836792 710.076721 737.096069 705.345581 738.06427 700.795349 C 738.96283 696.572876 739.877136 692.351074 740.640076 688.103027 C 742.004578 680.50531 743.195618 679.686707 751.333496 681.626221 z" stroke-linecap="round" />
</g>
		<g transform="matrix(1.09 0 0 1.09 -159.86 -0.74)" id="Layer_1"  >
<path style="stroke: none; stroke-width: 1; stroke-dasharray: none; stroke-linecap: butt; stroke-dashoffset: 0; stroke-linejoin: miter; stroke-miterlimit: 4; fill: rgb(0,0,0); fill-rule: nonzero; opacity: 1;"  transform=" translate(-363.15, -719.97)" d="M 353.347473 680.695068 C 359.805237 680.679565 365.800323 680.786255 371.789032 680.636902 C 375.527039 680.543701 377.274261 681.902405 377.308258 685.832458 C 377.341156 689.635742 375.93454 691.167358 372.055145 691.276123 C 360.862396 691.589844 360.865479 691.70636 360.991638 703.230469 C 361.002563 704.229126 361.011475 705.227905 361.031555 706.22644 C 361.163147 712.766968 361.16449 712.866455 367.725311 712.836731 C 371.374023 712.82019 373.885956 713.585571 373.899963 717.967651 C 373.91153 721.591614 372.88028 723.455139 368.776276 723.432861 C 361.389008 723.392639 361.659424 723.62439 361.006073 730.913818 C 360.333801 738.414917 361.280121 745.852844 361.236389 753.323181 C 361.210968 757.660461 359.455688 759.304688 355.284454 759.314331 C 351.279846 759.323608 349.635406 757.683716 349.657837 753.613647 C 349.749329 736.995605 349.700348 720.376343 349.599274 703.758179 C 349.565033 698.128418 349.204163 692.50116 349.031616 686.871582 C 348.943176 683.98761 348.678772 680.93689 353.347473 680.695068 z" stroke-linecap="round" />
</g>
		<g transform="matrix(1.09 0 0 1.09 -122.45 -0.74)" id="Layer_1"  >
<path style="stroke: none; stroke-width: 1; stroke-dasharray: none; stroke-linecap: butt; stroke-dashoffset: 0; stroke-linejoin: miter; stroke-miterlimit: 4; fill: rgb(0,0,0); fill-rule: nonzero; opacity: 1;"  transform=" translate(-397.36, -719.98)" d="M 391.936707 746.793457 C 391.845001 730.053589 391.618896 713.774841 391.748657 697.499023 C 391.786713 692.723877 390.256226 690.422913 385.407593 691.366516 C 381.08609 692.207581 380.2276 689.69397 379.980591 686.328979 C 379.71347 682.690857 381.053162 680.623962 385.037903 680.661316 C 393.362061 680.739319 401.688812 680.768005 410.011719 680.639221 C 413.508209 680.585205 414.854187 682.227966 414.766907 685.466736 C 414.68335 688.566101 413.933411 690.904236 410.090271 691.229919 C 403.295074 691.805725 403.306122 691.953918 403.342682 698.870667 C 403.441132 717.498657 403.493042 736.127075 403.677856 754.754211 C 403.718292 758.827576 401.332794 759.384155 398.165283 759.3078 C 395.328247 759.23938 392.259003 759.765381 392.504181 755.194092 C 392.645142 752.565674 392.14798 749.903015 391.936707 746.793457 z" stroke-linecap="round" />
</g>
</g>
</g>
</svg>